<?xml version="1.0" encoding="UTF-8" standalone="no"?>
<svg width="81px" height="82px" viewBox="0 0 81 82" version="1.1" xmlns="http://www.w3.org/2000/svg" xmlns:xlink="http://www.w3.org/1999/xlink">
    <!-- Generator: Sketch 48.2 (47327) - http://www.bohemiancoding.com/sketch -->
    <title>Group 2</title>
    <desc>Created with Sketch.</desc>
    <defs></defs>
    <g id="Assistive-Copy" stroke="none" stroke-width="1" fill="none" fill-rule="evenodd" transform="translate(-971.000000, -336.000000)">
        <g id="Group-2" transform="translate(970.878641, 336.670025)">
            <g id="Group">
                <path d="M80.112462,40.509352 C80.112462,18.6741134 62.3988818,0.972839567 40.5478997,0.972839567 C18.6969176,0.972839567 0.983337396,18.6741134 0.983337396,40.509352 C0.983337396,62.3445906 18.6969176,80.0458644 40.5478997,80.0458644 C62.3988818,80.0458644 80.112462,62.3445906 80.112462,40.509352 Z" id="Stroke-22" stroke="#FFFFFF" stroke-width="1.62"></path>
                <path d="M28.5328946,21.4234891 C28.5328946,20.5780031 29.3019594,20.1537871 30.8415622,20.1537871 L31.3027063,20.1537871 C32.8408358,20.1537871 33.6113739,20.5780031 33.6113739,21.4234891 L33.6113739,39.0682233 L34.3657056,39.0682233 C34.3657056,39.0682233 43.1701708,27.8368101 47.5724035,22.2218401 C47.9009503,21.802043 48.5595172,20.9624488 48.5595172,20.9624488 C48.9823555,20.423341 50.0210349,20.1537871 51.6755554,20.1537871 L52.2516173,20.1537871 C53.5982172,20.1537871 54.2715172,20.4041923 54.2715172,20.9035299 C54.2715172,21.2496784 54.0785143,21.6341241 53.693982,22.0568672 L39.2703349,40.0477498 L56.7525613,59.0196319 C57.0987877,59.4040777 57.2711643,59.7119289 57.2711643,59.9417126 C57.2711643,60.4808204 56.4254878,60.7489013 54.7326614,60.7489013 L54.0402084,60.7489013 C52.3871612,60.7489013 51.3293289,60.499969 50.8667114,59.9991585 L34.3657056,41.4323437 L33.6113739,41.4323437 L33.6113739,59.4806722 C33.6113739,60.3261583 32.8408358,60.7489013 31.3027063,60.7489013 L30.8415622,60.7489013 C29.3019594,60.7489013 28.5328946,60.3261583 28.5328946,59.4806722 L28.5328946,21.4234891" id="Fill-21" fill="#FFFFFF"></path>
                <path d="M0.173337396,40.509352 C0.173337396,40.509352 4.6057838,39.7006984 5.07008795,35.6143463 C5.5343921,31.5279943 8.25388784,24.1407447 10.6500289,20.9094444 L6.60394988,18.6558196 C6.60394988,18.6558196 -0.135093218,28.5286848 0.173337396,40.509352" id="Fill-23" fill="#FFFFFF"></path>
                <path d="M20.2030868,5.71736189 C20.2030868,5.71736189 21.6905183,9.96776457 18.3657689,12.3904112 C15.0393613,14.8114008 10.1591931,20.9392718 8.53247033,24.6179829 L4.57759391,22.2284778 C4.57759391,22.2284778 9.62855977,11.3679947 20.2030868,5.71736189" id="Fill-24" fill="#FFFFFF"></path>
                <path d="M80.8478417,40.3767858 C80.8478417,40.3767858 76.2860534,39.5349907 75.8217493,35.4486386 C75.3574451,31.3622866 72.6379494,23.975037 70.2418083,20.7437367 L74.2895456,18.4901119 C74.2895456,18.4901119 81.1562723,28.3961186 80.8478417,40.3767858" id="Fill-25" fill="#FFFFFF"></path>
                <path d="M62.5260683,12.2247035 C65.8524759,14.6456931 70.7326442,20.7735641 72.3593669,24.4522752 L76.3142433,22.0627701 C76.3142433,22.0627701 71.2632775,11.202287 60.6887505,5.55165419 C60.6887505,5.55165419 59.2013189,9.80205686 62.5260683,12.2247035 Z" id="Fill-26" fill="#FFFFFF"></path>
                <path d="M20.0787196,75.4173374 C20.0787196,75.4173374 23.100013,71.8993628 26.8675096,73.5531257 C30.6366643,75.2068887 38.3938601,76.5756343 42.3951669,76.1298806 L42.3072808,80.7580968 C42.3072808,80.7580968 30.2851198,81.707602 20.0787196,75.4173374" id="Fill-27" fill="#FFFFFF"></path>
                <path d="M60.3388641,75.5184191 C60.3388641,75.5184191 57.4104315,72.096555 53.642935,73.7503179 C49.8754384,75.4057379 42.1215591,76.5391786 38.1202523,76.0934249 L38.1981891,80.7116987 C38.1981891,80.7116987 50.132464,81.8103408 60.3388641,75.5184191" id="Fill-28" fill="#FFFFFF"></path>
            </g>
        </g>
    </g>
</svg>